<svg width="40" height="40" viewBox="0 0 40 40" fill="none" xmlns="http://www.w3.org/2000/svg">
<path d="M11.6667 32.8333C11.6667 31.7288 12.5621 30.8333 13.6667 30.8333H26.3333C27.4379 30.8333 28.3333 31.7288 28.3333 32.8333V33.6667C28.3333 33.9428 28.1095 34.1667 27.8333 34.1667H12.1667C11.8905 34.1667 11.6667 33.9428 11.6667 33.6667V32.8333Z" stroke="white"/>
<path d="M14.9147 25C14.9147 25 17.1865 26.7027 18.5626 26.9859C19.7889 27.2382 21.06 27.1632 22.2481 26.7686C23.4363 26.374 24.4996 25.6735 25.3312 24.7377C26.1629 23.8019 26.7335 22.6636 26.9858 21.4373C27.2382 20.211 27.1632 18.94 26.7686 17.7518C26.5796 17.1827 26.3203 16.6422 25.9987 16.1421L25.8333 15.8333M11.3399 25C11.3399 25 12.5532 26.7604 13.3573 27.4749C14.6694 28.641 16.2653 29.4411 17.9847 29.7948C19.704 30.1486 21.4862 30.0435 23.1521 29.4902C24.818 28.9369 26.3089 27.9548 27.4749 26.6427C28.6409 25.3306 29.441 23.7346 29.7948 22.0153C30.1485 20.2959 30.0435 18.5137 29.4902 16.8479C29.1998 15.9737 28.7914 15.1477 28.2792 14.3916L28.1565 14.2587M25.8333 15.8333C26.8871 15.8333 27.7887 15.1813 28.1565 14.2587M25.8333 15.8333C24.9527 15.8333 24.1784 15.378 23.7331 14.6899M28.1565 14.2587C28.2706 13.9725 28.3333 13.6602 28.3333 13.3333C28.3333 12.6892 28.0898 12.102 27.6897 11.6588M28.4663 8.49672L28.3333 8.60018M28.4663 8.49672C28.7878 8.91639 29.3406 8.92454 29.7301 8.61066C30.3114 8.14222 30.3696 7.30685 29.9265 6.72848L29.5262 6.20587C29.0831 5.6275 28.2614 5.46624 27.6577 5.90552C27.2564 6.19762 27.1229 6.74318 27.4387 7.15543M28.4663 8.49672L27.9525 7.82608L27.4387 7.15543M27.4387 7.15543L27.3079 7.26161M27.3079 7.26161L28.3333 8.60018M27.3079 7.26161C26.7045 6.47396 26.4027 6.08014 25.9914 5.95581C25.8534 5.9141 25.7095 5.89505 25.5654 5.8994C25.1359 5.91235 24.7421 6.21405 23.9544 6.81746L15.6326 13.1927C15.4088 13.3642 15.2969 13.4499 15.2165 13.5382C14.8419 13.9498 14.7624 14.5506 15.0168 15.0454C15.0715 15.1517 15.1572 15.2636 15.3286 15.4874M28.3333 8.60018C28.7321 9.12068 28.9314 9.38092 28.9979 9.65313C29.077 9.97734 29.0317 10.3194 28.8709 10.6119C28.7359 10.8574 28.4756 11.0568 27.9551 11.4555L27.6897 11.6588M15.3286 15.4874L17.4066 18.1998M15.3286 15.4874L13.6226 16.7955C13.2226 17.102 13.0226 17.2552 12.9098 17.4381C12.7352 17.7211 12.6896 18.0651 12.7846 18.3837C12.8459 18.5896 12.9992 18.7897 13.3057 19.1897C13.6122 19.5897 13.7654 19.7897 13.9483 19.9025C14.2313 20.0771 14.5753 20.1226 14.894 20.0277C15.0999 19.9663 15.2999 19.8131 15.6999 19.5066L17.4066 18.1998M17.4066 18.1998C17.763 18.665 18.4291 18.7533 18.8943 18.3969L23.7331 14.6899M23.7331 14.6899C23.4802 14.2992 23.3333 13.8334 23.3333 13.3333C23.3333 11.9526 24.4526 10.8333 25.8333 10.8333C26.57 10.8333 27.2322 11.1519 27.6897 11.6588" stroke="white"/>
<path d="M10.8333 25H17.5" stroke="white" stroke-linecap="round"/>
</svg>
