<!DOCTYPE svg PUBLIC "-//W3C//DTD SVG 1.1//EN" "http://www.w3.org/Graphics/SVG/1.1/DTD/svg11.dtd">
<!-- Uploaded to: SVG Repo, www.svgrepo.com, Transformed by: SVG Repo Mixer Tools -->
<svg width="800px" height="800px" viewBox="0 0 512 512" xmlns="http://www.w3.org/2000/svg" fill="#000000">
<g id="SVGRepo_bgCarrier" stroke-width="0"/>
<g id="SVGRepo_tracerCarrier" stroke-linecap="round" stroke-linejoin="round"/>
<g id="SVGRepo_iconCarrier">
<title>ionicons-v5-n</title>
<path d="M429.93,174.27l-16.47-28.59a15.49,15.49,0,0,0-21.15-5.7l-98.39,57a4,4,0,0,1-6-3.5L288,80a16,16,0,0,0-16-16H240a16,16,0,0,0-16,16l.07,113.57a4,4,0,0,1-6,3.5l-98.39-57a15.49,15.49,0,0,0-21.15,5.7L82.07,174.37a15.42,15.42,0,0,0,5.69,21.1l98.49,57.08a4,4,0,0,1,0,6.9L87.76,316.53a15.54,15.54,0,0,0-5.69,21.1l16.47,28.59a15.49,15.49,0,0,0,21.15,5.7l98.39-57a4,4,0,0,1,6,3.5L224,432a16,16,0,0,0,16,16h32a16,16,0,0,0,16-16l-.07-113.67a4,4,0,0,1,6-3.5l98.39,57a15.49,15.49,0,0,0,21.15-5.7l16.47-28.59a15.42,15.42,0,0,0-5.69-21.1l-98.49-57.08a4,4,0,0,1,0-6.9l98.49-57.08A15.51,15.51,0,0,0,429.93,174.27Z" style="fill:none;stroke:#3B8590;stroke-linecap:round;stroke-linejoin:round;stroke-width:32px"/>
</g>
</svg>